<svg width="100%" height="100%" id="svg" viewBox="0 0 1440 490" xmlns="http://www.w3.org/2000/svg" class="transition duration-300 ease-in-out delay-150"><defs><linearGradient id="gradient" x1="99%" y1="59%" x2="1%" y2="41%"><stop offset="5%" stop-color="#ff6900"></stop><stop offset="95%" stop-color="#0693e3"></stop></linearGradient></defs><path d="M 0,500 L 0,125 C 113.35714285714286,147.75 226.71428571428572,170.5 368,164 C 509.2857142857143,157.5 678.5,121.75 780,111 C 881.5,100.25 915.2857142857142,114.50000000000001 1014,121 C 1112.7142857142858,127.49999999999999 1276.357142857143,126.25 1440,125 L 1440,500 L 0,500 Z" stroke="none" stroke-width="0" fill="url(#gradient)" fill-opacity="0.53" class="transition-all duration-300 ease-in-out delay-150 path-0"></path><defs><linearGradient id="gradient" x1="99%" y1="59%" x2="1%" y2="41%"><stop offset="5%" stop-color="#ff6900"></stop><stop offset="95%" stop-color="#0693e3"></stop></linearGradient></defs><path d="M 0,500 L 0,291 C 87.10714285714286,316.67857142857144 174.21428571428572,342.35714285714283 314,336 C 453.7857142857143,329.64285714285717 646.25,291.25 778,274 C 909.75,256.75 980.7857142857142,260.6428571428571 1081,267 C 1181.2142857142858,273.3571428571429 1310.607142857143,282.17857142857144 1440,291 L 1440,500 L 0,500 Z" stroke="none" stroke-width="0" fill="url(#gradient)" fill-opacity="1" class="transition-all duration-300 ease-in-out delay-150 path-1"></path></svg>
